<svg width="33" height="32" viewBox="0 0 33 32" fill="none" xmlns="http://www.w3.org/2000/svg">
<path fill-rule="evenodd" clip-rule="evenodd" d="M12.5029 18.6666C12.5029 13.5119 16.6816 9.33325 21.8363 9.33325C26.9909 9.33325 31.1696 13.5119 31.1696 18.6666C31.1696 23.8213 26.9909 27.9999 21.8363 27.9999C16.6816 27.9999 12.5029 23.8213 12.5029 18.6666ZM21.8363 14.6666C22.5727 14.6666 23.1696 15.2635 23.1696 15.9999V18.1143L25.0013 19.9459C25.522 20.4667 25.522 21.3109 25.0013 21.8317C24.4805 22.3523 23.6364 22.3523 23.1157 21.8317L20.8935 19.6094C20.6435 19.3594 20.5029 19.0202 20.5029 18.6666V15.9999C20.5029 15.2635 21.0999 14.6666 21.8363 14.6666Z" fill="#AE9999"/>
<path d="M2.62879 12.4638C2.11731 9.56307 4.05422 6.79688 6.95498 6.2854L16.1465 4.66468C18.1759 4.30684 20.1395 5.14737 21.3111 6.67795C17.9765 6.82204 14.9947 8.32703 12.9072 10.6515L2.62879 12.4638Z" fill="#AE9999"/>
<path d="M10.9062 13.7122L3.09277 15.0898L4.01889 20.3422C4.53039 23.243 7.29656 25.1798 10.1973 24.6683L11.3322 24.4682C10.3807 22.7487 9.839 20.7708 9.839 18.6664C9.839 16.8998 10.2207 15.2224 10.9062 13.7122Z" fill="#AE9999"/>
</svg>
