<svg width="16" height="16" viewBox="0 0 16 16" fill="none" xmlns="http://www.w3.org/2000/svg">
<path fill-rule="evenodd" clip-rule="evenodd" d="M3.29065 2.95603C3 3.52646 3 4.27319 3 5.76667V10.2333C3 11.7268 3 12.4735 3.29065 13.044C3.54631 13.5457 3.95426 13.9537 4.45603 14.2094C5.02646 14.5 5.77319 14.5 7.26667 14.5H8.73333C10.2268 14.5 10.9735 14.5 11.544 14.2094C12.0457 13.9537 12.4537 13.5457 12.7094 13.044C13 12.4735 13 11.7268 13 10.2333V7.11851C13 6.48377 13 6.1664 12.9299 5.86681C12.8678 5.60116 12.7653 5.34662 12.6259 5.11207C12.4688 4.84756 12.2488 4.61879 11.8089 4.16124L10.509 2.8094L10.509 2.8094C10.0448 2.32656 9.81263 2.08513 9.53908 1.91229C9.29659 1.75908 9.03096 1.64599 8.75244 1.57739C8.43825 1.5 8.10333 1.5 7.43349 1.5H7.26667C5.77319 1.5 5.02646 1.5 4.45603 1.79065C3.95426 2.04631 3.54631 2.45426 3.29065 2.95603ZM8.45889 3.27724L11.3159 6.2485C11.4788 6.41794 11.3587 6.7 11.1236 6.7H8.26667C8.11939 6.7 8 6.5806 8 6.43333V3.46207C8 3.22196 8.29247 3.10416 8.45889 3.27724Z" fill="#252322"/>
</svg>
