<svg width="16" height="16" viewBox="0 0 16 16" fill="none" xmlns="http://www.w3.org/2000/svg">
<path d="M6.79319 8.60401C7.05232 8.95079 7.38293 9.23773 7.76259 9.44537C8.14225 9.653 8.56208 9.77647 8.9936 9.80741C9.42512 9.83834 9.85824 9.77602 10.2636 9.62466C10.6689 9.47331 11.037 9.23646 11.3429 8.93018L13.1531 7.11814C13.7027 6.54855 14.0068 5.78567 13.9999 4.99382C13.993 4.20197 13.6757 3.4445 13.1163 2.88456C12.557 2.32461 11.8002 2.007 11.0092 2.00011C10.2181 1.99323 9.45602 2.29764 8.88701 2.84777L7.84915 3.88063M9.20681 7.39599C8.94768 7.04921 8.61707 6.76227 8.23741 6.55463C7.85775 6.347 7.43792 6.22353 7.0064 6.19259C6.57488 6.16166 6.14176 6.22398 5.73642 6.37534C5.33107 6.52669 4.96299 6.76354 4.65713 7.06982L2.84692 8.88186C2.29734 9.45145 1.99324 10.2143 2.00011 11.0062C2.00699 11.798 2.32429 12.5555 2.88367 13.1154C3.44305 13.6754 4.19976 13.993 4.99081 13.9999C5.78187 14.0068 6.54397 13.7024 7.11299 13.1522L8.14482 12.1194" stroke="#252322" stroke-width="1.5" stroke-linecap="round" stroke-linejoin="round"/>
</svg>
