<svg width="20" height="20" viewBox="0 0 20 20" fill="none" xmlns="http://www.w3.org/2000/svg">
<path d="M3.33333 4.16675C2.8731 4.16675 2.5 4.53985 2.5 5.00008C2.5 5.46031 2.8731 5.83341 3.33333 5.83341H16.6667C17.1269 5.83341 17.5 5.46031 17.5 5.00008C17.5 4.53985 17.1269 4.16675 16.6667 4.16675H3.33333Z" fill="#AE9999"/>
<path d="M14.9324 8.00507C14.8012 7.69867 14.4998 7.5 14.1665 7.5C13.8332 7.5 13.5318 7.69867 13.4006 8.00507L12.2818 10.6153L9.67159 11.7341C9.36517 11.8653 9.1665 12.1667 9.1665 12.5C9.1665 12.8333 9.36517 13.1347 9.67159 13.2659L12.2818 14.3847L13.4006 16.9949C13.5318 17.3013 13.8332 17.5 14.1665 17.5C14.4998 17.5 14.8012 17.3013 14.9324 16.9949L16.0512 14.3847L18.6614 13.2659C18.9678 13.1347 19.1665 12.8333 19.1665 12.5C19.1665 12.1667 18.9678 11.8653 18.6614 11.7341L16.0512 10.6153L14.9324 8.00507Z" fill="#AE9999"/>
<path d="M3.33333 9.16675C2.8731 9.16675 2.5 9.53983 2.5 10.0001C2.5 10.4603 2.8731 10.8334 3.33333 10.8334H7.5C7.96023 10.8334 8.33333 10.4603 8.33333 10.0001C8.33333 9.53983 7.96023 9.16675 7.5 9.16675H3.33333Z" fill="#AE9999"/>
<path d="M3.33333 14.1667C2.8731 14.1667 2.5 14.5398 2.5 15.0001C2.5 15.4603 2.8731 15.8334 3.33333 15.8334H5.83333C6.29357 15.8334 6.66667 15.4603 6.66667 15.0001C6.66667 14.5398 6.29357 14.1667 5.83333 14.1667H3.33333Z" fill="#AE9999"/>
</svg>
