<svg width="20" height="20" viewBox="0 0 20 20" fill="none" xmlns="http://www.w3.org/2000/svg">
<path d="M6.00572 4.75584C6.33115 4.4304 6.33115 3.90277 6.00572 3.57733C5.68028 3.25189 5.15264 3.25189 4.8272 3.57733L2.08313 6.32141C1.43225 6.97229 1.43225 8.02756 2.08313 8.67842L4.8272 11.4225C5.15264 11.7479 5.68028 11.7479 6.00572 11.4225C6.33115 11.0971 6.33115 10.5694 6.00572 10.244L4.09497 8.33325H14.1666C15.5473 8.33325 16.6666 9.4525 16.6666 10.8333V11.6666C16.6666 13.0473 15.5473 14.1666 14.1666 14.1666H9.99992C9.53967 14.1666 9.16658 14.5397 9.16658 14.9999C9.16658 15.4602 9.53967 15.8333 9.99992 15.8333H14.1666C16.4678 15.8333 18.3333 13.9678 18.3333 11.6666V10.8333C18.3333 8.53208 16.4678 6.66659 14.1666 6.66659H4.09497L6.00572 4.75584Z" fill="#AE9999"/>
</svg>
