<svg width="32" height="32" viewBox="0 0 32 32" fill="none" xmlns="http://www.w3.org/2000/svg">
<path d="M4 16C4 11.7996 4 9.69941 4.81745 8.09507C5.5365 6.68386 6.68386 5.5365 8.09507 4.81745C9.69941 4 11.7996 4 16 4C20.2004 4 22.3006 4 23.9049 4.81745C25.3161 5.5365 26.4635 6.68386 27.1825 8.09507C28 9.69941 28 11.7996 28 16C28 20.2004 28 22.3006 27.1825 23.9049C26.4635 25.3161 25.3161 26.4635 23.9049 27.1825C22.3006 28 20.2004 28 16 28C11.7996 28 9.69941 28 8.09507 27.1825C6.68386 26.4635 5.5365 25.3161 4.81745 23.9049C4 22.3006 4 20.2004 4 16Z" fill="#FB5014"/>
<path d="M9 15.2636V18.2481C9 19.9072 9 20.7368 9.24938 21.3142C9.64451 22.229 10.4551 22.8522 11.3841 22.9553C11.9704 23.0204 12.6951 22.7479 14.1445 22.2031C14.6849 22 14.9551 21.8984 15.2297 21.8433C15.6625 21.7565 16.1061 21.754 16.5397 21.8361C16.8148 21.8881 17.0915 21.9887 17.6449 22.1899C19.2983 22.7911 20.125 23.0917 20.7771 22.9753C21.5943 22.8295 22.3019 22.2797 22.6902 21.4886C23 20.8574 23 19.9337 23 18.0862V15.2636C23 12.3109 23 10.8346 22.1516 9.91728C21.3032 9 19.9378 9 17.2069 9H14.7931C12.0622 9 10.6968 9 9.84838 9.91728C9 10.8346 9 12.3109 9 15.2636Z" fill="white"/>
</svg>
