<svg width="41" height="41" viewBox="0 0 41 41" fill="none" xmlns="http://www.w3.org/2000/svg">
<path fill-rule="evenodd" clip-rule="evenodd" d="M4.52521 9.20728C3.35742 11.4992 3.35742 14.4995 3.35742 20.5C3.35742 26.5006 3.35742 29.5009 4.52521 31.7928C5.55242 33.8088 7.1915 35.4479 9.20752 36.4751C11.4994 37.6429 14.4997 37.6429 20.5003 37.6429C26.5008 37.6429 29.5011 37.6429 31.793 36.4751C33.8091 35.4479 35.4481 33.8088 36.4753 31.7928C37.6431 29.5009 37.6431 26.5006 37.6431 20.5C37.6431 14.4995 37.6431 11.4992 36.4753 9.20728C35.4481 7.19126 33.8091 5.55218 31.793 4.52496C29.5011 3.35718 26.5008 3.35718 20.5003 3.35718C14.4997 3.35718 11.4994 3.35718 9.20752 4.52496C7.1915 5.55218 5.55242 7.19126 4.52521 9.20728ZM10.5003 23.7115V19.448C10.5003 15.2299 10.5003 13.1208 11.7123 11.8104C12.9242 10.5 14.8749 10.5 18.7761 10.5H22.2244C26.1257 10.5 28.0763 10.5 29.2883 11.8104C30.5003 13.1208 30.5003 15.2299 30.5003 19.448V23.4804V23.4804C30.5003 26.1196 30.5003 27.4392 30.0577 28.3409C29.5029 29.471 28.4922 30.2565 27.3247 30.4648C26.3931 30.631 25.2121 30.2016 22.8501 29.3428L22.8501 29.3428C22.0596 29.0554 21.6643 28.9117 21.2712 28.8373C20.6519 28.72 20.0181 28.7235 19.3999 28.8476C19.0075 28.9263 18.6215 29.0714 17.8496 29.3616C15.779 30.14 14.7437 30.5291 13.9061 30.4362C12.579 30.2889 11.421 29.3987 10.8565 28.0917C10.5003 27.2668 10.5003 26.0817 10.5003 23.7115Z" fill="#D8D5D5"/>
</svg>
