<svg width="16" height="14" viewBox="0 0 16 14" fill="none" xmlns="http://www.w3.org/2000/svg">
<path d="M3 0.333313C1.61929 0.333313 0.5 1.4526 0.5 2.83331C0.5 4.21403 1.61929 5.33331 3 5.33331C4.38071 5.33331 5.5 4.21403 5.5 2.83331C5.5 1.4526 4.38071 0.333313 3 0.333313Z" fill="#AE9999"/>
<path d="M8.83333 1.99998C8.3731 1.99998 8 2.37308 8 2.83331C8 3.29355 8.3731 3.66665 8.83333 3.66665H14.6667C15.1269 3.66665 15.5 3.29355 15.5 2.83331C15.5 2.37308 15.1269 1.99998 14.6667 1.99998H8.83333Z" fill="#AE9999"/>
<path d="M3 8.66665C1.61929 8.66665 0.5 9.78593 0.5 11.1666C0.5 12.5474 1.61929 13.6666 3 13.6666C4.38071 13.6666 5.5 12.5474 5.5 11.1666C5.5 9.78593 4.38071 8.66665 3 8.66665Z" fill="#AE9999"/>
<path d="M8.83333 10.3333C8.3731 10.3333 8 10.7064 8 11.1666C8 11.6269 8.3731 12 8.83333 12H14.6667C15.1269 12 15.5 11.6269 15.5 11.1666C15.5 10.7064 15.1269 10.3333 14.6667 10.3333H8.83333Z" fill="#AE9999"/>
</svg>
