<svg width="16" height="16" viewBox="0 0 16 16" fill="none" xmlns="http://www.w3.org/2000/svg">
<path fill-rule="evenodd" clip-rule="evenodd" d="M4.8933 0.600262C5.08061 0.583263 5.30807 0.583288 5.54718 0.583315H10.4534C10.6925 0.583288 10.92 0.583263 11.1073 0.600262C11.3041 0.618125 11.5601 0.661247 11.7984 0.819198C12.1095 1.02547 12.3267 1.34624 12.4027 1.71176C12.4608 1.99165 12.4058 2.24533 12.3493 2.43469C12.2955 2.61492 12.211 2.82611 12.1222 3.04811L11.4396 4.75447L11.422 4.79865L11.4172 4.81113L11.417 4.8245L11.417 4.87207V6.29248C11.417 6.328 11.417 6.35514 11.4172 6.37863L11.4175 6.40339L11.4327 6.42292C11.4472 6.44138 11.4642 6.46257 11.4864 6.4903L12.5531 7.82371C12.7576 8.07934 12.9422 8.31001 13.0722 8.50666C13.1988 8.69818 13.3628 8.98298 13.3632 9.33179C13.3636 9.72385 13.2017 10.0967 12.9191 10.3634L11.6315 9.07589C11.559 8.98254 11.4703 8.87145 11.3616 8.7355L10.3151 7.42735L10.2968 7.40455C10.2298 7.32137 10.1392 7.20868 10.0721 7.07731C10.014 6.96364 9.97156 6.84265 9.9459 6.71761C9.91624 6.5731 9.91663 6.42847 9.91692 6.32171L9.91698 6.29248V4.87207L9.91696 4.85596V4.85594C9.91687 4.79655 9.91675 4.71608 9.9262 4.63367C9.93439 4.56223 9.948 4.49152 9.96693 4.42215C9.98876 4.34213 10.0188 4.26746 10.0409 4.21233L10.0469 4.19738L10.7188 2.51759C10.7979 2.31986 10.8504 2.18755 10.8849 2.08846C10.7801 2.08375 10.6378 2.08332 10.4248 2.08332H5.57581C5.36285 2.08332 5.22051 2.08375 5.11568 2.08846C5.12989 2.1292 5.08145 2.16155 5.02497 2.19925C4.94409 2.25326 4.84673 2.31826 4.8933 2.43469L3.79185 1.23621C3.89716 1.0717 4.03635 0.929177 4.20225 0.819198C4.44052 0.661247 4.69649 0.618125 4.8933 0.600262ZM10.1647 10.75L12.972 13.5327C13.2662 13.8242 13.7411 13.8222 14.0327 13.528C14.3243 13.2338 14.3222 12.7589 14.028 12.4673L2.52798 1.06847C2.2338 0.776871 1.75893 0.778969 1.46733 1.07315C1.17574 1.36734 1.17783 1.84221 1.47202 2.1338L4.58364 5.21806V6.29248C4.58364 6.32799 4.58364 6.35514 4.58345 6.37863L4.58315 6.40339L4.56791 6.42292C4.55339 6.44138 4.53643 6.46258 4.51425 6.4903L3.44751 7.82373C3.24298 8.07936 3.05842 8.31002 2.92841 8.50666C2.8018 8.69818 2.63777 8.98298 2.63739 9.33179C2.63693 9.76322 2.83308 10.1714 3.17027 10.4405C3.44287 10.6581 3.76773 10.7079 3.99638 10.7287C4.23116 10.75 4.52658 10.75 4.85397 10.75L7.25031 10.75V14.6667C7.25031 15.0809 7.58609 15.4167 8.00031 15.4167C8.41452 15.4167 8.75031 15.0809 8.75031 14.6667V10.75H10.1647ZM8.65135 9.24998L6.06131 6.68273C6.0593 6.69434 6.0571 6.70598 6.05472 6.71761C6.02905 6.84265 5.98661 6.96364 5.92854 7.07731C5.86142 7.20869 5.77077 7.32138 5.70385 7.40456L5.68555 7.42735L4.63903 8.7355C4.45712 8.96289 4.33143 9.12074 4.24338 9.24232C4.39332 9.24952 4.5951 9.24998 4.88631 9.24998H8.65135Z" fill="#252322"/>
</svg>
