<svg width="393" height="852" viewBox="0 0 393 852" fill="none" xmlns="http://www.w3.org/2000/svg">
<path d="M136 417.902V447.055C136 460.352 136 467 137.986 471.638C141.398 479.606 148.712 484.98 157.039 485.64C161.887 486.023 167.872 483.773 179.843 479.273C184.412 477.555 186.697 476.696 189.018 476.215C192.974 475.394 197.044 475.372 201.008 476.149C203.334 476.605 205.677 477.457 210.361 479.16C224.072 484.146 230.927 486.638 236.343 485.86C243.72 484.799 250.134 480.033 253.517 473.099C256 468.008 256 460.583 256 445.734V417.902C256 393.435 256 381.202 248.728 373.601C241.456 366 229.753 366 206.345 366H185.655C162.248 366 150.544 366 143.272 373.601C136 381.202 136 393.435 136 417.902Z" fill="white"/>
</svg>
