<svg width="16" height="16" viewBox="0 0 16 16" fill="none" xmlns="http://www.w3.org/2000/svg">
<path fill-rule="evenodd" clip-rule="evenodd" d="M1.47685 3.38879C1 4.32466 1 5.54977 1 8C1 10.4502 1 11.6753 1.47685 12.6112C1.89629 13.4344 2.56558 14.1037 3.38879 14.5232C4.32466 15 5.54977 15 8 15C10.4502 15 11.6753 15 12.6112 14.5232C13.4344 14.1037 14.1037 13.4344 14.5232 12.6112C15 11.6753 15 10.4502 15 8C15 5.54977 15 4.32466 14.5232 3.38879C14.1037 2.56558 13.4344 1.89629 12.6112 1.47685C11.6753 1 10.4502 1 8 1C5.54977 1 4.32466 1 3.38879 1.47685C2.56558 1.89629 1.89629 2.56558 1.47685 3.38879ZM3.91667 9.31137V7.57042C3.91667 5.84802 3.91667 4.98683 4.41156 4.45175C4.90644 3.91667 5.70295 3.91667 7.29598 3.91667H8.70402C10.297 3.91667 11.0936 3.91667 11.5884 4.45175C12.0833 4.98683 12.0833 5.84802 12.0833 7.57042V9.21696C12.0833 10.2946 12.0833 10.8335 11.9026 11.2017C11.6761 11.6632 11.2634 11.9839 10.7866 12.0689C10.4062 12.1368 9.924 11.9615 8.95953 11.6108C8.63672 11.4934 8.47532 11.4347 8.3148 11.4044C8.0619 11.3565 7.80312 11.3579 7.55069 11.4086C7.39046 11.4407 7.23285 11.5 6.91764 11.6185C6.07215 11.9363 5.6494 12.0952 5.30739 12.0573C4.76548 11.9971 4.29263 11.6336 4.06214 11.0999C3.91667 10.7631 3.91667 10.2792 3.91667 9.31137Z" fill="white"/>
</svg>
