<svg width="20" height="20" viewBox="0 0 20 20" fill="none" xmlns="http://www.w3.org/2000/svg">
<path d="M5.86881 5.83333C6.93642 4.80345 8.40769 4.16667 9.99977 4.16667C13.2214 4.16667 15.8331 6.77834 15.8331 10C15.8331 10.4602 16.2062 10.8333 16.6664 10.8333C17.1267 10.8333 17.4998 10.4602 17.4998 10C17.4998 5.85787 14.1419 2.5 9.99977 2.5C8.1027 2.5 6.33962 3.20523 4.99967 4.37016V3.33333C4.99967 2.8731 4.62657 2.5 4.16634 2.5C3.7061 2.5 3.33301 2.8731 3.33301 3.33333V6.04167C3.33301 6.84708 3.98592 7.5 4.79134 7.5H7.29134C7.75157 7.5 8.12467 7.1269 8.12467 6.66667C8.12467 6.20643 7.75157 5.83333 7.29134 5.83333H5.86881Z" fill="#FF5D1D"/>
<path d="M4.16667 10.0001C4.16667 9.53983 3.79357 9.16675 3.33333 9.16675C2.8731 9.16675 2.5 9.53983 2.5 10.0001C2.5 14.1422 5.85787 17.5001 10 17.5001C11.9017 17.5001 13.6687 16.7914 15.0097 15.6215V16.6667C15.0097 17.127 15.3828 17.5001 15.8431 17.5001C16.3033 17.5001 16.6764 17.127 16.6764 16.6667V13.9584C16.6764 13.153 16.0235 12.5001 15.2181 12.5001H12.5097C12.0495 12.5001 11.6764 12.8732 11.6764 13.3334C11.6764 13.7937 12.0495 14.1667 12.5097 14.1667H14.131C13.0633 15.1967 11.5921 15.8334 10 15.8334C6.77834 15.8334 4.16667 13.2217 4.16667 10.0001Z" fill="#FF5D1D"/>
</svg>
