<svg width="24" height="24" viewBox="0 0 24 24" fill="none" xmlns="http://www.w3.org/2000/svg">
<path d="M8 2C8.55228 2 9 2.44772 9 3V4H15V3C15 2.44772 15.4477 2 16 2C16.5523 2 17 2.44772 17 3V4C19.2091 4 21 5.79086 21 8V9C21 9.55229 20.5523 10 20 10H5V17C5 18.1046 5.89543 19 7 19H10C10.5523 19 11 19.4477 11 20C11 20.5523 10.5523 21 10 21H7C4.79086 21 3 19.2091 3 17V8C3 5.79086 4.79086 4 7 4V3C7 2.44772 7.44772 2 8 2Z" fill="#AE9999"/>
<path d="M17 14.3749C16.6673 14.3749 16.346 14.4365 16.049 14.5489L16.6464 15.1463C16.9614 15.4613 16.7383 15.9999 16.2929 15.9999H14C13.4477 15.9999 13 15.5522 13 14.9999V12.707C13 12.2616 13.5386 12.0385 13.8536 12.3535L14.56 13.0599C15.2735 12.6255 16.1127 12.3749 17 12.3749C19.1132 12.3749 20.893 13.7913 21.4467 15.7246C21.5987 16.2555 21.2916 16.8092 20.7606 16.9613C20.2297 17.1133 19.676 16.8062 19.524 16.2752C19.2095 15.1771 18.1971 14.3749 17 14.3749Z" fill="#AE9999"/>
<path d="M14.4762 17.7247C14.3242 17.1937 13.7705 16.8866 13.2396 17.0386C12.7086 17.1907 12.4015 17.7444 12.5535 18.2753C13.1072 20.2086 14.887 21.625 17.0002 21.625C17.8877 21.625 18.727 21.3742 19.4402 20.94L20.1466 21.6464C20.4616 21.9614 21.0002 21.7383 21.0002 21.2929V19C21.0002 18.4477 20.5525 18 20.0002 18H17.7073C17.2619 18 17.0388 18.5386 17.3538 18.8536L17.9512 19.451C17.6541 19.5634 17.3329 19.625 17.0002 19.625C15.8031 19.625 14.7907 18.8228 14.4762 17.7247Z" fill="#AE9999"/>
</svg>
