<svg width="33" height="32" viewBox="0 0 33 32" fill="none" xmlns="http://www.w3.org/2000/svg">
<path d="M12.5 4.00008C12.5 3.26371 11.903 2.66675 11.1667 2.66675C10.4303 2.66675 9.83333 3.26371 9.83333 4.00008V5.33341C6.88781 5.33341 4.5 7.72123 4.5 10.6667V22.6667C4.5 25.6122 6.88781 28.0001 9.83333 28.0001H15.1667C15.9031 28.0001 16.5 27.4031 16.5 26.6667C16.5 25.9303 15.9031 25.3334 15.1667 25.3334H9.83333C8.36057 25.3334 7.16667 24.1395 7.16667 22.6667V13.3334H25.8333V16.0001C25.8333 16.7365 26.4303 17.3334 27.1667 17.3334C27.9031 17.3334 28.5 16.7365 28.5 16.0001V10.6667C28.5 7.72123 26.1121 5.33341 23.1667 5.33341V4.00008C23.1667 3.26371 22.5697 2.66675 21.8333 2.66675C21.0969 2.66675 20.5 3.26371 20.5 4.00008V5.33341H12.5V4.00008Z" fill="#FF5D1D"/>
<path d="M29.5415 22.1664C30.0015 21.5913 29.9083 20.7522 29.3332 20.2922C28.7582 19.8322 27.9191 19.9254 27.4591 20.5005L23.0564 26.004L21.4431 24.3906C20.9224 23.87 20.0782 23.87 19.5575 24.3906C19.0368 24.9113 19.0368 25.7556 19.5575 26.2762L22.2242 28.9429C22.4923 29.211 22.862 29.3524 23.2407 29.3314C23.6194 29.3104 23.9712 29.1292 24.2082 28.833L29.5415 22.1664Z" fill="#FF5D1D"/>
</svg>
