<svg width="16" height="16" viewBox="0 0 16 16" fill="none" xmlns="http://www.w3.org/2000/svg">
<path d="M6 1.99992C6 1.63173 5.70152 1.33325 5.33333 1.33325C4.96515 1.33325 4.66667 1.63173 4.66667 1.99992V2.66659C3.19391 2.66659 2 3.86049 2 5.33325V11.3333C2 12.806 3.19391 13.9999 4.66667 13.9999H7.33333C7.70153 13.9999 8 13.7015 8 13.3333C8 12.9651 7.70153 12.6666 7.33333 12.6666H4.66667C3.93029 12.6666 3.33333 12.0697 3.33333 11.3333V6.66659H12.6667V7.33325C12.6667 7.70145 12.9651 7.99992 13.3333 7.99992C13.7015 7.99992 14 7.70145 14 7.33325V5.33325C14 3.86049 12.8061 2.66659 11.3333 2.66659V1.99992C11.3333 1.63173 11.0349 1.33325 10.6667 1.33325C10.2985 1.33325 10 1.63173 10 1.99992V2.66659H6V1.99992Z" fill="white"/>
<path d="M10.1953 10.1953C9.93492 10.4557 9.93492 10.8777 10.1953 11.138L11.0572 12L10.1953 12.8619C9.93492 13.1223 9.93492 13.5443 10.1953 13.8047C10.4556 14.0651 10.8776 14.0651 11.138 13.8047L12 12.9428L12.8619 13.8047C13.1223 14.0651 13.5443 14.0651 13.8047 13.8047C14.0651 13.5444 14.0651 13.1223 13.8047 12.8619L12.9429 12L13.8047 11.138C14.0651 10.8776 14.0651 10.4556 13.8047 10.1953C13.5443 9.93492 13.1223 9.93492 12.8619 10.1953L12 11.0572L11.138 10.1953C10.8776 9.93492 10.4556 9.93492 10.1953 10.1953Z" fill="white"/>
</svg>
