<svg width="17" height="16" viewBox="0 0 17 16" fill="none" xmlns="http://www.w3.org/2000/svg">
<path d="M6.5 1.99992C6.5 1.63173 6.20152 1.33325 5.83333 1.33325C5.46515 1.33325 5.16667 1.63173 5.16667 1.99992V2.66659H4.5C3.39543 2.66659 2.5 3.56202 2.5 4.66659V11.9999C2.5 13.1045 3.39543 13.9999 4.5 13.9999H7.83333C8.20153 13.9999 8.5 13.7015 8.5 13.3333C8.5 12.9651 8.20153 12.6666 7.83333 12.6666H4.5C4.13181 12.6666 3.83333 12.3681 3.83333 11.9999V6.66659H13.1667V7.33325C13.1667 7.70145 13.4651 7.99992 13.8333 7.99992C14.2015 7.99992 14.5 7.70145 14.5 7.33325V4.66659C14.5 3.56202 13.6046 2.66659 12.5 2.66659H11.8333V1.99992C11.8333 1.63173 11.5349 1.33325 11.1667 1.33325C10.7985 1.33325 10.5 1.63173 10.5 1.99992V2.66659H6.5V1.99992Z" fill="white"/>
<path d="M13.1663 9.99992C13.1663 9.63172 12.8679 9.33325 12.4997 9.33325C12.1315 9.33325 11.833 9.63172 11.833 9.99992V11.3333H10.4997C10.1315 11.3333 9.83301 11.6317 9.83301 11.9999C9.83301 12.3681 10.1315 12.6666 10.4997 12.6666H11.833V13.9999C11.833 14.3681 12.1315 14.6666 12.4997 14.6666C12.8679 14.6666 13.1663 14.3681 13.1663 13.9999V12.6666H14.4997C14.8679 12.6666 15.1663 12.3681 15.1663 11.9999C15.1663 11.6317 14.8679 11.3333 14.4997 11.3333H13.1663V9.99992Z" fill="white"/>
</svg>
