<svg width="20" height="20" viewBox="0 0 20 20" fill="none" xmlns="http://www.w3.org/2000/svg">
<g clip-path="url(#clip0_689_5008)">
<path d="M10.0003 4.99999V18.3333M10.0003 4.99999H7.0539C6.61976 4.99999 6.20341 4.8244 5.89643 4.51183C5.58945 4.19927 5.41699 3.77535 5.41699 3.33332C5.41699 2.8913 5.58945 2.46737 5.89643 2.15481C6.20341 1.84225 6.61976 1.66666 7.0539 1.66666C9.34556 1.66666 10.0003 4.99999 10.0003 4.99999ZM10.0003 4.99999H12.9468C13.3809 4.99999 13.7972 4.8244 14.1042 4.51183C14.4112 4.19927 14.5837 3.77535 14.5837 3.33332C14.5837 2.8913 14.4112 2.46737 14.1042 2.15481C13.7972 1.84225 13.3809 1.66666 12.9468 1.66666C10.6551 1.66666 10.0003 4.99999 10.0003 4.99999ZM16.667 9.16666V15.6667C16.667 16.6001 16.667 17.0668 16.4853 17.4233C16.3255 17.7369 16.0706 17.9919 15.757 18.1517C15.4005 18.3333 14.9337 18.3333 14.0003 18.3333L6.00033 18.3333C5.0669 18.3333 4.60019 18.3333 4.24367 18.1517C3.93007 17.9919 3.6751 17.7369 3.51531 17.4233C3.33366 17.0668 3.33366 16.6001 3.33366 15.6667V9.16666M1.66699 6.33332L1.66699 7.83332C1.66699 8.30003 1.66699 8.53339 1.75782 8.71165C1.83771 8.86845 1.9652 8.99593 2.122 9.07583C2.30026 9.16666 2.53362 9.16666 3.00033 9.16666L17.0003 9.16666C17.467 9.16666 17.7004 9.16666 17.8787 9.07583C18.0355 8.99593 18.1629 8.86845 18.2428 8.71165C18.3337 8.53339 18.3337 8.30003 18.3337 7.83332V6.33332C18.3337 5.86661 18.3337 5.63326 18.2428 5.455C18.1629 5.2982 18.0355 5.17071 17.8787 5.09082C17.7004 4.99999 17.467 4.99999 17.0003 4.99999L3.00033 4.99999C2.53362 4.99999 2.30026 4.99999 2.122 5.09082C1.9652 5.17071 1.83771 5.2982 1.75782 5.455C1.66699 5.63326 1.66699 5.86661 1.66699 6.33332Z" stroke="white" stroke-width="1.5" stroke-linecap="round" stroke-linejoin="round"/>
</g>
<defs>
<clipPath id="clip0_689_5008">
<rect width="20" height="20" fill="white"/>
</clipPath>
</defs>
</svg>
