<svg width="24" height="24" viewBox="0 0 24 24" fill="none" xmlns="http://www.w3.org/2000/svg">
<path d="M11.9484 10.2856V13.9371H17.0228C16.8 15.1114 16.1313 16.1058 15.1284 16.7744L18.1885 19.1487C19.9714 17.503 21 15.0858 21 12.2143C21 11.5458 20.94 10.9028 20.8285 10.2857L11.9484 10.2856Z" fill="#4285F4"/>
<path d="M6.66424 13.7947L5.97408 14.323L3.53113 16.2258C5.08259 19.303 8.26243 21.4288 11.9482 21.4288C14.4939 21.4288 16.6282 20.5888 18.1883 19.1488L15.1282 16.7744C14.2882 17.3402 13.2168 17.6831 11.9482 17.6831C9.49673 17.6831 7.41388 16.0288 6.6681 13.8001L6.66424 13.7947Z" fill="#34A853"/>
<path d="M3.53113 7.77419C2.88829 9.04273 2.51975 10.4742 2.51975 11.9999C2.51975 13.5257 2.88829 14.9572 3.53113 16.2257C3.53113 16.2342 6.6684 13.7914 6.6684 13.7914C6.47983 13.2256 6.36837 12.6257 6.36837 11.9998C6.36837 11.374 6.47983 10.7741 6.6684 10.2083L3.53113 7.77419Z" fill="#FBBC05"/>
<path d="M11.9484 6.32558C13.337 6.32558 14.5713 6.80558 15.5571 7.73133L18.2571 5.0313C16.6199 3.50557 14.4942 2.57121 11.9484 2.57121C8.26262 2.57121 5.08259 4.68839 3.53113 7.77419L6.6683 10.2085C7.41399 7.97989 9.49692 6.32558 11.9484 6.32558Z" fill="#EA4335"/>
</svg>
