<svg width="20" height="20" viewBox="0 0 20 20" fill="none" xmlns="http://www.w3.org/2000/svg">
<path d="M8.79319 10.604C9.05232 10.9508 9.38293 11.2377 9.76259 11.4454C10.1422 11.653 10.5621 11.7765 10.9936 11.8074C11.4251 11.8383 11.8582 11.776 12.2636 11.6247C12.6689 11.4733 13.037 11.2365 13.3429 10.9302L15.1531 9.11814C15.7027 8.54855 16.0068 7.78567 15.9999 6.99382C15.993 6.20197 15.6757 5.4445 15.1163 4.88456C14.557 4.32461 13.8002 4.007 13.0092 4.00011C12.2181 3.99323 11.456 4.29764 10.887 4.84777L9.84915 5.88063M11.2068 9.39599C10.9477 9.04921 10.6171 8.76227 10.2374 8.55463C9.85775 8.347 9.43792 8.22353 9.0064 8.19259C8.57488 8.16166 8.14176 8.22398 7.73642 8.37534C7.33107 8.52669 6.96299 8.76354 6.65713 9.06982L4.84692 10.8819C4.29734 11.4514 3.99324 12.2143 4.00011 13.0062C4.00699 13.798 4.32429 14.5555 4.88367 15.1154C5.44305 15.6754 6.19976 15.993 6.99081 15.9999C7.78187 16.0068 8.54397 15.7024 9.11299 15.1522L10.1448 14.1194" stroke="#FB5012" stroke-width="1.5" stroke-linecap="round" stroke-linejoin="round"/>
</svg>
