<svg width="16" height="16" viewBox="0 0 16 16" fill="none" xmlns="http://www.w3.org/2000/svg">
<path d="M8.00061 10L8.00061 14.6667M5.33395 4.8721V6.29251C5.33395 6.43119 5.33395 6.50053 5.32033 6.56685C5.30826 6.62569 5.28828 6.68263 5.26096 6.73612C5.23015 6.79642 5.18684 6.85056 5.10021 6.95885L4.05369 8.267C3.60986 8.82178 3.38795 9.09917 3.3877 9.33262C3.38748 9.53565 3.47979 9.72771 3.63846 9.85437C3.82091 10 4.17615 10 4.88661 10H11.1146C11.8251 10 12.1803 10 12.3628 9.85437C12.5214 9.72771 12.6137 9.53565 12.6135 9.33262C12.6133 9.09917 12.3914 8.82178 11.9475 8.267L10.901 6.95885C10.8144 6.85056 10.7711 6.79642 10.7403 6.73612C10.7129 6.68263 10.693 6.62569 10.6809 6.56685C10.6673 6.50053 10.6673 6.43119 10.6673 6.29251V4.8721C10.6673 4.79535 10.6673 4.75697 10.6716 4.71913C10.6755 4.68551 10.6819 4.65223 10.6908 4.61959C10.7008 4.58284 10.7151 4.54721 10.7436 4.47595L11.4155 2.79616C11.6115 2.3061 11.7095 2.06107 11.6686 1.86437C11.6329 1.69236 11.5307 1.54142 11.3843 1.44435C11.2168 1.33334 10.9529 1.33334 10.4251 1.33334H5.57611C5.0483 1.33334 4.7844 1.33334 4.61695 1.44435C4.47052 1.54142 4.36832 1.69236 4.33258 1.86437C4.2917 2.06107 4.38972 2.3061 4.58574 2.79616L5.25765 4.47595C5.28616 4.54721 5.30041 4.58284 5.31044 4.61959C5.31934 4.65223 5.32575 4.68551 5.32961 4.71913C5.33395 4.75697 5.33395 4.79535 5.33395 4.8721Z" stroke="#252322" stroke-width="1.5" stroke-linecap="round" stroke-linejoin="round"/>
</svg>
