<svg width="24" height="24" viewBox="0 0 24 24" fill="none" xmlns="http://www.w3.org/2000/svg">
<path fill-rule="evenodd" clip-rule="evenodd" d="M12 22C17.5228 22 22 17.5228 22 12C22 6.47715 17.5228 2 12 2C6.47715 2 2 6.47715 2 12C2 17.5228 6.47715 22 12 22ZM16.3071 10.3071C16.6976 9.91658 16.6976 9.28342 16.3071 8.89289C15.9166 8.50237 15.2834 8.50237 14.8929 8.89289L10.8 12.9858L9.10711 11.2929C8.71658 10.9024 8.08342 10.9024 7.69289 11.2929C7.30237 11.6834 7.30237 12.3166 7.69289 12.7071L10.0929 15.1071C10.2804 15.2946 10.5348 15.4 10.8 15.4C11.0652 15.4 11.3196 15.2946 11.5071 15.1071L16.3071 10.3071Z" fill="#252322"/>
</svg>
