<svg width="16" height="16" viewBox="0 0 16 16" fill="none" xmlns="http://www.w3.org/2000/svg">
<path fill-rule="evenodd" clip-rule="evenodd" d="M4.5 3.5C3.94772 3.5 3.5 3.94772 3.5 4.5V6.5C3.5 7.05228 3.94772 7.5 4.5 7.5H6.5C7.05228 7.5 7.5 7.05228 7.5 6.5V4.5C7.5 3.94772 7.05228 3.5 6.5 3.5H4.5ZM9.5 3.5C8.94771 3.5 8.5 3.94772 8.5 4.5V6.5C8.5 7.05228 8.94771 7.5 9.5 7.5H11.5C12.0523 7.5 12.5 7.05228 12.5 6.5V4.5C12.5 3.94772 12.0523 3.5 11.5 3.5H9.5ZM8.5 9.5C8.5 8.94771 8.94771 8.5 9.5 8.5H11.5C12.0523 8.5 12.5 8.94771 12.5 9.5V11.5C12.5 12.0523 12.0523 12.5 11.5 12.5H9.5C8.94771 12.5 8.5 12.0523 8.5 11.5V9.5ZM4.5 8.5C3.94772 8.5 3.5 8.94771 3.5 9.5V11.5C3.5 12.0523 3.94772 12.5 4.5 12.5H6.5C7.05228 12.5 7.5 12.0523 7.5 11.5V9.5C7.5 8.94771 7.05228 8.5 6.5 8.5H4.5Z" fill="#252322"/>
</svg>
