<svg width="20" height="20" viewBox="0 0 20 20" fill="none" xmlns="http://www.w3.org/2000/svg">
<path d="M2.86205 14.9866C3.40114 14.9866 3.70438 14.717 3.89305 14.0701L4.40519 12.554H7.91597L8.42811 14.0903C8.61004 14.7238 8.91325 14.9866 9.48606 14.9866C10.079 14.9866 10.5036 14.589 10.5036 14.0297C10.5036 13.8275 10.4699 13.6456 10.3756 13.3828L7.70708 6.14556C7.41732 5.3504 6.94562 5 6.15047 5C5.38227 5 4.90384 5.36388 4.62082 6.1523L1.96583 13.3828C1.87822 13.6321 1.83105 13.8612 1.83105 14.0297C1.83105 14.6159 2.22863 14.9866 2.86205 14.9866ZM4.84993 10.9771L6.11004 6.99461H6.15721L7.44427 10.9771H4.84993Z" fill="#FF5D1D"/>
<path d="M14.0172 14.973C14.9202 14.973 15.8232 14.5216 16.2275 13.7534H16.2679V14.124C16.3083 14.7035 16.6789 15 17.2113 15C17.7707 15 18.1682 14.6631 18.1682 14.0094V9.8922C18.1682 8.43663 16.962 7.47976 15.1089 7.47976C13.6129 7.47976 12.4539 8.0121 12.117 8.87463C12.0496 9.0229 12.0159 9.16442 12.0159 9.31939C12.0159 9.76415 12.3595 10.0741 12.838 10.0741C13.1547 10.0741 13.404 9.95281 13.6197 9.71024C14.0577 9.14419 14.4215 8.94877 15.0213 8.94877C15.7625 8.94877 16.2343 9.33961 16.2343 10.0135V10.4919L14.4148 10.5997C12.6089 10.7075 11.5981 11.469 11.5981 12.783C11.5981 14.0836 12.6426 14.973 14.0172 14.973ZM14.6642 13.5512C14.0038 13.5512 13.559 13.2143 13.559 12.6752C13.559 12.1631 13.9768 11.8328 14.7113 11.779L16.2343 11.6846V12.2102C16.2343 12.9919 15.5267 13.5512 14.6642 13.5512Z" fill="#FF5D1D"/>
</svg>
