<svg width="20" height="20" viewBox="0 0 20 20" fill="none" xmlns="http://www.w3.org/2000/svg">
<path fill-rule="evenodd" clip-rule="evenodd" d="M10 18C14.4183 18 18 14.4183 18 10C18 5.58172 14.4183 2 10 2C5.58172 2 2 5.58172 2 10C2 14.4183 5.58172 18 10 18ZM13.4623 8.47677C13.7256 8.22144 13.7321 7.80099 13.4768 7.53767C13.2214 7.27436 12.801 7.26789 12.5377 7.52323L8.875 11.0749L7.46233 9.70504C7.19901 9.44971 6.77856 9.45618 6.52323 9.71949C6.26789 9.98281 6.27436 10.4033 6.53767 10.6586L8.41267 12.4768C8.67028 12.7266 9.07972 12.7266 9.33733 12.4768L13.4623 8.47677Z" fill="#D8D5D5"/>
</svg>
