<svg width="16" height="16" viewBox="0 0 16 16" fill="none" xmlns="http://www.w3.org/2000/svg">
<path fill-rule="evenodd" clip-rule="evenodd" d="M6.38388 2.89206C7.11267 1.70265 8.88732 1.70264 9.61609 2.89206L14.733 11.2429C15.4783 12.4592 14.575 14 13.1169 14H2.88309C1.42496 14 0.521764 12.4592 1.26699 11.2429L6.38388 2.89206ZM8.00006 6.03833C8.28326 6.03833 8.51285 6.26111 8.51285 6.53593V9.18984C8.51285 9.46465 8.28326 9.68744 8.00006 9.68744C7.71687 9.68744 7.48728 9.46465 7.48728 9.18984V6.53593C7.48728 6.26111 7.71687 6.03833 8.00006 6.03833ZM8.68378 11.0144C8.68378 11.3808 8.37768 11.6779 8.00006 11.6779C7.62245 11.6779 7.31635 11.3808 7.31635 11.0144C7.31635 10.6479 7.62245 10.3509 8.00006 10.3509C8.37768 10.3509 8.68378 10.6479 8.68378 11.0144Z" fill="#FF3021"/>
</svg>
